<?xml version="1.0" encoding="utf-8"?>
<!-- Svg Vector Icons : http://www.onlinewebfonts.com/icon -->
<!DOCTYPE svg PUBLIC "-//W3C//DTD SVG 1.1//EN" "http://www.w3.org/Graphics/SVG/1.1/DTD/svg11.dtd">
<svg version="1.1" xmlns="http://www.w3.org/2000/svg" xmlns:xlink="http://www.w3.org/1999/xlink" x="0px" y="0px" viewBox="0 0 1000 1000" enable-background="new 0 0 1000 1000" xml:space="preserve">
<metadata> Svg Vector Icons : http://www.onlinewebfonts.com/icon </metadata>
<g><g><path opacity="0.07" d="M771,491.1c77.1,6.1,153.6,12.7,216.8,32.4c-62.7-10.3-138.8-25.9-216.8-28.1c-32.2,63.5-97,94.7-186.5,101.3c9.6,20.9,28,28.9,32.6,62.6c6.7,50.3-10.5,123.9,6.4,157.4c8.1,16,21.4,16.5,30.3,30.2c-21.9,25.9-76.2-2.9-82.4-30.2c-10.6-46.7,16.1-119.3-13-151c2.1,51-12,122.6,2.2,168.3c5.6,17.9,21.8,24.9,17.4,41c-101.8,10.3-59.2-131.8-75.9-215.6c-15.4,1.1-8.6,23-8.7,32.3c-0.5,82,16.8,194.3-71.5,183.3c-2.6-17.2,11.9-23.1,17.4-38.8c16.1-46.1-3-114.8,4.4-170.4c-33.7,25.4,3.5,114.1-17.4,159.7c-12,26.1-50.8,37.5-80.2,25.9c3.8-19.5,24-16.3,32.5-34.5c11.9-25.4,0.1-61.9,4.3-99.3c-62.4,12.5-110.8-1.8-134.5-41c-10.6-17.6-13.2-38.3-26-53.9c-12.8-15.7-33.1-17.7-39-38.9c77.2-18.6,80.2,79.5,149.6,81.9c21.3,0.8,32.3-6.2,52-10.7c5.5-24.7,17.3-43.2,34.7-56.1C333.4,586.9,262.1,560,229,495.3c-78.5,3.9-150.3,14.3-216.8,30.2c60.4-22,134.8-29.8,214.7-32.3c-4.7-28.3-46-20.5-71.5-19.4c-47.5,2.1-107.5,8-145.3,15.1c54.9-19.6,131.8-17.1,206-17.3c-22.7-71.2-14.9-184.3,34.7-226.5c-14-35.3-9.7-93.2,8.7-120.8c55.3,2.5,88.8,26.6,123.6,49.6c43.1-12.3,88.4-18.3,147.4-15.1c24.8,1.4,50.7,12.5,69.3,10.8c18.4-1.7,38.6-22.3,56.4-30.2c23.2-10.3,42.8-14.1,69.4-15.1c12.7,29,21,77,8.7,112.2c50.4,43,67.7,147.5,43.3,233c71.8,5.5,157.3-2.6,212.5,19.4c-51.6-6.7-122-19.7-188.6-15.1C788.7,474.6,770.1,473.3,771,491.1z"/></g><g></g><g></g><g></g><g></g><g></g><g></g><g></g><g></g><g></g><g></g><g></g><g></g><g></g><g></g><g></g></g>
</svg>